<?xml version="1.0" encoding="UTF-8"?>
<!DOCTYPE svg PUBLIC "-//W3C//DTD SVG 1.1//EN" "http://www.w3.org/Graphics/SVG/1.1/DTD/svg11.dtd">
<!-- Creator: CorelDRAW X7 -->
<svg xmlns="http://www.w3.org/2000/svg"
    xml:space="preserve"
    width="1000"
    height="700"
    version="1.1"
    style="shape-rendering:geometricPrecision; text-rendering:geometricPrecision; image-rendering:optimizeQuality; fill-rule:evenodd; clip-rule:evenodd"
    viewBox="0 0 3000 2000">
 <defs>
  <style type="text/css">
   <![CDATA[
    .fil0 {fill:#484544}
   ]]>
  </style>
 </defs>
 <g id="Layer_x0020_1">
  <g id="_370182152976">
   <g>
    <path class="fil0" d="M0 133c0,0 346,-13 697,38 0,0 32,-10 72,-2 40,8 51,-53 51,-53 0,0 8,9 10,23 5,17 72,-118 264,-90 0,0 60,10 100,2 0,0 -2,19 -28,25 0,0 72,13 131,89 61,76 131,108 131,108 0,0 -15,12 -42,10 169,127 858,85 828,805 0,0 -15,-8 -23,-34 -11,112 -51,226 -112,315 23,106 53,199 93,226 0,0 -26,2 -38,-4 0,0 38,80 4,129 -36,50 -196,46 -224,88 0,0 -19,-19 -15,-44 0,0 -53,-13 -101,4 -47,15 -78,13 -95,-4 0,0 -30,0 -40,13 0,0 2,-30 36,-38 0,0 2,-45 65,-45 61,2 216,30 243,-57 13,-40 -6,-95 -40,-150 -40,28 -87,47 -135,53 -85,9 -157,0 -209,-15 -32,74 -41,146 -36,163 0,0 -15,-4 -24,-27 0,0 9,93 -31,107 -40,15 -136,-6 -195,5 -61,10 -82,12 -103,0 0,0 -26,4 -32,14 0,0 -6,-25 19,-36 0,0 -29,-6 -55,-2 -27,7 -55,13 -61,-8 0,0 -25,0 -40,8 0,0 19,-36 48,-40 0,0 0,-21 38,-19 36,2 229,28 262,-15 17,-21 62,-88 83,-171 -161,-59 -311,-243 -311,-243 -6,21 -27,24 -27,24 2,-214 -114,-343 -138,-505 0,0 -4,29 -21,33 21,-276 -101,-232 -169,-388 0,0 -2,29 -12,38 0,0 0,-57 -85,-119 0,0 -48,-12 -80,-52 0,0 -207,-79 -404,-102 -196,-23 -241,-32 -249,-57z"/>
   </g>
  </g>
 </g>
</svg>
